<svg width="392" height="392" fill="none" xmlns="http://www.w3.org/2000/svg"><path d="M175.98 115.74c6.19-19.547 33.85-19.547 40.04 0l3.527 11.139c3.281 10.361 13.926 16.507 24.54 14.168l11.41-2.515c20.023-4.413 33.853 19.542 20.02 34.676l-7.882 8.624c-7.333 8.022-7.333 20.314 0 28.336l7.882 8.624c13.833 15.134.003 39.089-20.02 34.676l-11.41-2.515c-10.614-2.339-21.259 3.807-24.54 14.168l-3.527 11.139c-6.19 19.547-33.85 19.547-40.04 0l-3.527-11.139c-3.281-10.361-13.926-16.507-24.54-14.168l-11.41 2.515c-20.023 4.413-33.853-19.542-20.02-34.676l7.882-8.624c7.333-8.022 7.333-20.314 0-28.336l-7.882-8.624c-13.833-15.134-.003-39.089 20.02-34.676l11.41 2.515c10.614 2.339 21.259-3.807 24.54-14.168l3.527-11.139z" fill="#FF9800"/><path d="M218.792 116.483c15.134-13.833 39.089-.003 34.676 20.02l-2.515 11.41c-2.339 10.614 3.807 21.259 14.168 24.54l11.139 3.527c19.547 6.19 19.547 33.85 0 40.04l-11.139 3.527c-10.361 3.281-16.507 13.926-14.168 24.54l2.515 11.41c4.413 20.023-19.542 33.853-34.676 20.02l-8.624-7.882c-8.022-7.333-20.314-7.333-28.336 0l-8.624 7.882c-15.134 13.833-39.089.003-34.676-20.02l2.515-11.41c2.339-10.614-3.807-21.259-14.168-24.54l-11.139-3.527c-19.547-6.19-19.547-33.85 0-40.04l11.139-3.527c10.361-3.281 16.507-13.926 14.168-24.54l-2.515-11.41c-4.413-20.023 19.542-33.853 34.676-20.02l8.624 7.882c8.022 7.333 20.314 7.333 28.336 0l8.624-7.882z" fill="#FEC106"/><circle cx="196.45" cy="195.55" r="53.974" fill="#fff"/><circle cx="174.86" cy="176.659" r="10.795" fill="#FD5722"/><circle cx="217.14" cy="176.659" r="10.795" fill="#FD5722"/><path d="M196 230.634c15.285 0 28.061-10.89 31.198-25.435.815-3.78-2.397-6.95-6.263-6.95h-49.87c-3.866 0-7.078 3.17-6.263 6.95 3.137 14.545 15.913 25.435 31.198 25.435z" fill="#FD5722"/></svg>